<?xml version="1.0" standalone="no"?>
<!DOCTYPE svg PUBLIC "-//W3C//DTD SVG 20010904//EN"
 "http://www.w3.org/TR/2001/REC-SVG-20010904/DTD/svg10.dtd">
<svg version="1.0" xmlns="http://www.w3.org/2000/svg"
 width="295.000000pt" height="295.000000pt" viewBox="0 0 295.000000 295.000000"
 preserveAspectRatio="xMidYMid meet">
<metadata>
Created by potrace 1.14, written by Peter Selinger 2001-2017
</metadata>
<g transform="translate(0.000000,295.000000) scale(0.100000,-0.100000)"
fill="#000000" stroke="none">
<path d="M890 2281 c0 -6 5 -13 10 -16 6 -3 10 1 10 9 0 9 -4 16 -10 16 -5 0
-10 -4 -10 -9z"/>
<path d="M2317 2203 c-14 -38 -29 -76 -32 -85 -5 -13 9 -25 65 -53 40 -20 73
-35 74 -33 9 11 68 169 65 172 -9 8 -129 66 -137 66 -5 0 -21 -30 -35 -67z"/>
<path d="M2090 2085 c-18 -47 -31 -86 -29 -88 21 -13 142 -67 144 -65 2 2 14
32 28 68 14 36 28 73 32 82 5 13 -8 24 -64 52 -39 20 -72 36 -74 36 -2 0 -19
-38 -37 -85z"/>
<path d="M11 2094 c0 -11 3 -14 6 -6 3 7 2 16 -1 19 -3 4 -6 -2 -5 -13z"/>
<path d="M196 2102 c-3 -5 -3 -18 0 -29 6 -21 6 -21 25 -2 10 10 19 24 19 29
0 12 -37 13 -44 2z"/>
<path d="M50 2070 c0 -5 7 -10 16 -10 8 0 12 5 9 10 -3 6 -10 10 -16 10 -5 0
-9 -4 -9 -10z"/>
<path d="M7 2020 c-3 -11 -1 -20 4 -20 5 0 9 2 9 4 0 2 3 11 6 20 3 9 2 16 -4
16 -5 0 -12 -9 -15 -20z"/>
<path d="M2391 1940 c-59 -153 -90 -235 -93 -248 -3 -11 131 -80 135 -70 1 2
12 30 24 63 12 33 37 98 56 145 56 137 57 125 -12 160 -33 16 -65 30 -70 30
-5 0 -23 -36 -40 -80z"/>
<path d="M202 1963 l3 -27 -72 0 c-77 -1 -105 -14 -85 -39 7 -8 9 -17 5 -20
-13 -14 -21 -6 -27 28 -13 70 -26 46 -26 -49 l0 -96 39 0 c59 0 71 -8 71 -46
0 -33 1 -34 39 -34 44 0 75 -25 50 -41 -8 -5 -26 -9 -41 -9 -27 0 -28 -2 -28
-50 0 -27 -4 -50 -10 -50 -5 0 -10 -7 -10 -15 0 -23 -41 -18 -47 5 -7 25 -36
23 -41 -3 -2 -12 4 -20 16 -24 27 -7 39 -53 18 -65 -9 -5 -16 -16 -16 -23 0
-18 -16 -20 -23 -2 -9 21 -7 -102 4 -252 9 -137 25 -201 49 -201 6 0 10 -8 10
-18 0 -18 27 -50 79 -91 25 -21 29 -28 24 -60 -4 -20 -11 -40 -17 -44 -8 -6
-7 -10 2 -14 13 -5 17 -32 5 -34 -5 -1 -24 -3 -43 -5 -99 -10 -122 -16 -116
-29 3 -8 1 -17 -4 -20 -6 -4 -10 -131 -10 -321 l0 -314 160 0 c123 0 159 3
158 12 -2 8 11 14 35 16 40 3 52 -14 15 -21 -13 -2 33 -5 101 -6 98 -1 121 2
113 12 -16 19 7 43 49 49 46 8 73 -7 30 -15 -17 -4 -31 -11 -31 -17 0 -14 45
-23 84 -16 20 4 37 2 41 -4 8 -14 155 -13 155 1 0 6 -14 22 -30 36 -17 14 -28
28 -26 31 3 3 1 11 -6 19 -10 12 -7 13 15 8 23 -6 27 -4 27 13 0 24 40 39 128
49 44 5 52 3 52 -11 0 -10 8 -16 25 -16 16 0 25 -6 25 -15 0 -16 45 -21 54 -6
12 18 46 -1 46 -25 0 -19 5 -23 28 -22 15 1 35 -2 45 -6 12 -6 17 -4 17 7 0 9
-4 19 -10 22 -15 9 -12 32 5 39 10 3 15 1 13 -7 -1 -6 1 -24 5 -39 8 -32 26
-35 87 -16 36 12 40 16 40 45 0 17 -5 33 -12 35 -8 3 -9 11 -3 24 8 18 9 18
12 -3 3 -17 15 -23 67 -32 34 -6 65 -11 68 -11 3 0 8 25 11 56 3 31 8 58 11
61 3 3 31 2 62 -2 l56 -7 -7 -119 -7 -119 86 0 86 0 0 44 c0 43 1 45 33 48 31
3 32 5 37 55 3 28 8 55 12 58 3 3 32 2 64 -2 l59 -8 -3 -67 -4 -67 39 -8 c21
-4 71 -8 111 -8 68 0 72 -1 72 -22 0 -20 5 -23 35 -23 19 0 35 5 35 11 0 7 14
9 43 5 23 -4 67 -9 98 -12 l56 -6 2 60 c2 49 -1 62 -16 71 -32 19 5 31 82 29
l70 -3 3 -63 c2 -38 -2 -69 -9 -78 -10 -12 -1 -14 57 -14 66 1 68 1 42 15 -31
18 -28 47 7 63 17 8 25 21 27 44 2 27 8 35 35 43 18 5 33 15 33 22 0 8 12 18
26 23 26 10 26 10 22 111 -2 79 -6 103 -20 113 -9 6 -23 34 -31 61 -9 28 -16
44 -16 38 -2 -24 -21 -13 -21 11 0 42 9 53 38 49 25 -4 26 -3 10 10 -10 8 -18
18 -18 22 0 5 -10 19 -21 31 -16 17 -29 22 -50 17 -36 -7 -46 15 -32 69 6 21
6 38 2 38 -17 0 -9 85 11 123 32 58 26 156 -8 138 -23 -12 -82 -2 -89 15 -2 7
7 32 21 56 25 43 25 43 6 68 -11 14 -25 40 -31 58 -12 38 -34 43 -27 7 4 -21
3 -23 -9 -14 -10 9 -17 8 -31 -3 -33 -28 -73 -40 -89 -27 -10 9 -17 9 -25 1
-9 -9 -7 -17 9 -34 34 -38 47 -68 34 -81 -11 -11 -24 -1 -33 26 -2 4 -28 -2
-58 -13 -65 -24 -97 -20 -102 14 l-3 23 -75 -17 c-125 -29 -142 -31 -138 -18
3 7 27 16 54 21 27 4 54 14 59 21 14 18 85 28 86 13 1 -7 5 11 9 38 4 33 2 60
-6 80 l-13 30 -1 -32 c0 -35 -14 -44 -24 -17 -3 9 -6 27 -6 41 0 30 -20 26
-37 -7 -17 -34 -22 -14 -25 103 l-3 99 -87 36 c-48 21 -88 42 -88 48 0 6 14
44 30 84 17 40 30 76 30 80 0 12 -143 71 -151 63 -4 -5 -21 -42 -37 -83 -31
-77 -35 -80 -86 -69 -16 3 -26 -10 -53 -74 -19 -43 -32 -86 -29 -94 6 -14 26
-15 156 -9 l150 7 0 -74 0 -75 -35 -6 c-20 -4 -40 -4 -45 -1 -6 3 -10 38 -10
77 l0 71 -31 -7 c-17 -3 -110 -6 -205 -6 l-174 0 0 -90 0 -90 81 0 80 0 -4
-102 c-12 -275 -12 -283 1 -280 6 1 12 -8 13 -20 0 -13 3 -55 7 -94 l8 -72
-51 -24 c-50 -25 -51 -25 -180 -13 -75 8 -135 9 -141 4 -6 -5 -14 -6 -17 -2
-4 3 -15 -1 -25 -10 -14 -13 -26 -15 -48 -8 -31 8 -54 5 -54 -9 0 -4 8 -6 17
-4 22 5 57 -21 48 -35 -3 -6 -28 -11 -55 -11 -27 0 -52 -4 -55 -10 -3 -5 -1
-10 4 -10 17 0 13 -21 -6 -36 -10 -7 -28 -14 -39 -14 -12 0 -24 -7 -28 -15 -9
-23 -26 -18 -26 9 0 17 -7 25 -24 28 -24 5 -46 -7 -46 -24 0 -4 10 -8 23 -9
12 0 16 -3 10 -6 -19 -7 -16 -21 5 -26 11 -2 6 -7 -18 -14 -41 -12 -65 -4 -29
10 14 5 19 11 12 14 -7 3 -13 9 -13 15 0 5 -9 23 -21 39 l-21 30 -23 -26 c-13
-14 -32 -25 -42 -25 -10 0 -23 -8 -30 -19 -10 -16 -8 -18 22 -14 24 2 35 -1
40 -14 3 -10 7 -20 8 -22 1 -2 -10 -5 -25 -7 -16 -1 -37 -5 -48 -9 -13 -4 -22
-1 -26 9 -4 10 -18 16 -40 16 l-34 0 0 70 c0 61 2 70 18 70 10 0 27 7 38 15
10 8 41 15 67 15 41 0 50 -3 54 -20 7 -26 39 -26 46 0 4 15 14 20 40 20 51 0
97 19 97 40 0 10 8 21 18 23 22 7 106 2 120 -7 19 -12 40 5 46 37 3 18 -1 95
-9 172 -8 77 -15 147 -15 156 0 22 96 48 186 51 l69 2 -62 3 -63 4 -1 77 c-1
42 0 82 1 87 1 6 -1 47 -5 93 l-7 82 -75 0 c-61 0 -74 -3 -70 -14 3 -8 7 -88
8 -178 l1 -163 -28 2 c-33 3 -54 -12 -54 -38 0 -15 -6 -17 -37 -12 -21 3 -40
7 -42 9 -9 8 -9 70 0 80 14 17 -28 51 -43 36 -21 -21 -33 -13 -56 42 -13 30
-32 62 -43 72 -20 18 -27 88 -9 99 5 3 2 14 -7 25 -9 11 -19 17 -22 14 -4 -3
-8 -72 -11 -152 l-5 -147 -37 -3 c-36 -3 -38 -5 -38 -38 0 -31 -3 -34 -28 -34
l-28 0 -2 75 -2 75 34 0 34 0 6 83 c3 45 4 100 3 122 -2 22 -4 57 -5 78 -2 44
-22 51 -22 7 l0 -30 -68 0 -68 0 4 35 4 35 -41 0 -42 0 7 -120 7 -120 -40 0
-40 0 -7 155 c-4 85 -5 159 -2 164 3 5 22 12 41 15 19 4 39 16 45 26 7 14 21
20 44 20 29 0 35 4 40 28 4 15 9 35 12 44 4 13 -3 18 -30 24 -20 3 -36 10 -36
15 0 13 -44 11 -75 -3 -14 -6 -25 -17 -25 -25 0 -15 -36 -18 -45 -3 -3 6 -21
10 -38 9 -27 0 -29 -2 -12 -9 16 -7 13 -9 -17 -9 -27 -1 -38 3 -38 14 0 9 -9
15 -25 15 -27 0 -34 17 -10 26 8 4 15 11 15 16 0 6 11 21 25 34 14 13 25 28
25 34 0 5 9 10 20 10 11 0 20 7 20 15 0 8 -6 12 -14 9 -8 -3 -17 -1 -21 5 -3
6 -14 11 -24 11 -26 0 -71 23 -71 38 0 17 -29 15 -36 -3 -4 -8 -18 -15 -34
-15 -16 0 -30 7 -34 15 -3 9 -18 15 -36 15 -28 0 -31 -3 -28 -27z m198 -358
c0 -55 8 -65 51 -65 32 0 39 -4 39 -19 0 -11 3 -26 6 -35 5 -13 -2 -16 -43
-16 l-50 0 5 31 c5 37 -8 49 -55 49 -32 0 -33 1 -33 44 l0 45 40 -1 c38 0 40
-2 40 -33z m3 -323 c18 -14 75 -23 82 -12 3 6 22 10 41 10 32 0 34 -2 34 -35
l0 -34 -72 -3 -73 -3 0 -83 -1 -83 31 3 c29 3 30 1 33 -39 3 -36 0 -43 -15
-43 -10 -1 -43 -3 -74 -6 l-56 -6 -6 63 c-4 34 -7 146 -7 250 l0 188 33 3 32
3 3 -82 c2 -48 8 -85 15 -91z m1767 -51 c0 -75 -11 -105 -30 -85 -4 5 -11 44
-14 87 l-7 77 26 0 c25 0 25 -1 25 -79z m-2030 26 c0 -46 -13 -61 -44 -53 -31
8 -34 32 -6 41 11 3 20 14 20 24 0 10 3 21 6 24 13 13 24 -5 24 -36z m650 -2
c0 -33 -2 -35 -35 -35 -28 0 -35 4 -35 19 0 37 12 51 41 51 26 0 29 -3 29 -35z
m140 -220 c0 -21 5 -25 33 -25 23 -1 41 -10 63 -33 33 -35 60 -87 44 -87 -6 0
-10 5 -10 10 0 12 -41 3 -79 -16 -30 -16 -111 -19 -111 -4 0 6 5 10 10 10 6 0
10 7 10 15 0 11 -12 15 -44 15 -44 0 -45 0 -48 -37 -3 -35 -6 -38 -35 -41 -32
-3 -33 -2 -33 32 0 22 5 36 13 36 6 0 30 14 51 30 24 18 52 30 70 30 23 0 27
3 18 12 -19 19 -15 66 6 71 35 9 42 7 42 -18z m-220 -25 c0 -35 -4 -37 -82
-43 l-58 -4 0 33 c0 31 2 33 43 37 101 9 97 10 97 -23z m588 -121 c-1 -28 -6
-53 -10 -55 -4 -3 -8 -16 -8 -29 0 -18 -7 -25 -30 -30 -16 -4 -32 -11 -35 -16
-11 -16 -25 -10 -25 11 0 11 -4 20 -9 20 -11 0 -23 -29 -16 -40 6 -10 -65 -24
-74 -14 -3 4 0 9 7 11 16 6 15 33 -2 33 -7 0 -19 -7 -27 -16 -8 -9 -21 -13
-35 -10 -18 5 -22 3 -18 -9 4 -8 10 -15 16 -15 5 0 6 -4 3 -10 -3 -5 -28 -12
-56 -16 -28 -4 -57 -13 -65 -21 -12 -13 -14 -12 -14 1 0 8 -7 19 -16 24 -13 7
-15 18 -10 45 8 44 24 50 114 45 63 -3 67 -2 70 20 2 14 10 22 23 22 10 0 19
7 19 15 0 9 12 21 28 28 15 6 31 17 35 24 5 8 28 13 55 13 26 0 54 5 62 10 8
5 16 10 18 10 1 0 1 -23 0 -51z m-723 1 c4 -6 3 -40 0 -75 l-7 -65 -69 0 -69
0 0 35 c0 33 2 35 34 35 36 0 46 12 46 56 0 20 5 24 29 24 17 0 33 -5 36 -10z
m-155 -40 c0 -25 -4 -30 -25 -30 -21 0 -25 5 -25 30 0 25 4 30 25 30 21 0 25
-5 25 -30z m440 -45 c0 -32 -2 -35 -30 -35 -28 0 -30 3 -30 35 0 32 2 35 30
35 28 0 30 -3 30 -35z m-220 -90 c0 -14 -4 -25 -9 -25 -5 0 -16 -3 -25 -6 -12
-5 -16 0 -16 19 0 23 9 31 43 36 4 0 7 -10 7 -24z m-290 -52 c0 -66 -16 -131
-35 -145 -5 -4 0 -8 13 -8 19 0 22 5 22 36 l0 35 73 -1 c39 -1 80 1 89 5 9 3
27 5 40 3 18 -2 24 -10 26 -35 3 -29 7 -33 33 -33 27 0 29 -3 29 -35 0 -34 2
-35 36 -35 35 0 36 -1 31 -32 -14 -82 -20 -96 -37 -101 -21 -5 -27 -43 -21
-115 3 -42 4 -44 32 -40 26 4 29 2 29 -23 0 -25 -4 -27 -55 -34 -30 -3 -59 -4
-65 0 -5 3 -10 31 -10 61 l0 54 -34 0 c-33 0 -35 2 -38 37 -3 36 -5 38 -35 35
-29 -3 -33 0 -33 20 0 36 -12 47 -50 45 -33 -2 -35 -1 -31 28 4 37 15 45 66
45 67 0 85 9 85 40 0 51 -7 58 -48 50 -20 -4 -54 -11 -74 -14 -36 -7 -38 -9
-38 -46 0 -39 -1 -40 -35 -40 -34 0 -35 1 -35 39 0 22 4 42 9 45 5 4 5 22 0
43 -5 21 -9 68 -9 105 0 61 2 67 23 71 47 9 47 10 47 -60z m1040 -22 c0 -12
-20 -25 -27 -18 -7 7 6 27 18 27 5 0 9 -4 9 -9z m1504 -173 c3 -14 0 -27 -7
-33 -23 -17 -26 -56 -11 -123 24 -103 12 -150 -30 -119 -17 13 -18 21 -6 143
7 71 14 135 16 142 6 20 31 14 38 -10z m-2102 -115 c2 -31 7 -39 26 -41 16 -3
22 -10 22 -28 0 -27 -5 -30 -72 -38 l-48 -6 0 69 c0 37 3 71 7 74 3 4 19 7 34
7 25 0 28 -4 31 -37z m-442 -118 c0 -32 -2 -35 -30 -35 -28 0 -30 3 -30 35 0
32 2 35 30 35 28 0 30 -3 30 -35z m2103 -38 c-34 -17 -65 -28 -68 -25 -14 14
17 47 48 51 80 10 82 6 20 -26z m-1608 -47 c0 -20 -6 -26 -27 -28 -24 -3 -28
0 -28 21 0 30 9 39 35 35 14 -2 20 -10 20 -28z m522 -6 c-3 -3 -12 -4 -19 -1
-8 3 -5 6 6 6 11 1 17 -2 13 -5z m-867 -34 c0 -16 -4 -30 -9 -30 -5 0 -16 -3
-24 -6 -10 -3 -20 3 -27 17 -11 19 -10 25 6 36 32 23 54 16 54 -17z m-133 -5
c6 -19 -13 -34 -47 -37 -27 -2 -35 1 -38 16 -2 10 2 23 10 27 17 12 70 7 75
-6z m-247 -65 c0 -5 -4 -10 -9 -10 -6 0 -13 5 -16 10 -3 6 1 10 9 10 9 0 16
-4 16 -10z"/>
<path d="M1120 821 c0 -21 13 -41 26 -41 17 0 17 5 4 31 -11 20 -30 26 -30 10z"/>
<path d="M916 772 c-3 -6 -1 -14 5 -17 15 -10 25 3 12 16 -7 7 -13 7 -17 1z"/>
<path d="M2504 1737 c-6 -7 -8 -22 -3 -32 6 -18 8 -17 18 8 6 16 11 30 11 33
0 8 -15 3 -26 -9z"/>
<path d="M2580 1731 c0 -11 -4 -22 -10 -26 -5 -3 -7 -12 -4 -20 4 -8 10 -13
14 -10 11 7 18 75 8 75 -4 0 -8 -9 -8 -19z"/>
<path d="M1581 1644 c-40 -7 -76 -15 -78 -18 -3 -3 -2 -38 1 -78 l7 -73 92 0
c55 0 92 4 92 10 -1 29 -29 175 -34 174 -3 -1 -39 -7 -80 -15z"/>
<path d="M877 1623 c-4 -3 -7 -21 -7 -40 0 -31 2 -33 35 -33 34 0 35 1 35 40
0 37 -2 40 -28 40 -16 0 -32 -3 -35 -7z"/>
<path d="M2710 1561 c0 -18 -6 -21 -42 -21 -24 0 -50 -4 -58 -10 -9 -6 -17 -5
-22 3 -10 16 -15 8 -23 -40 -5 -30 -3 -43 5 -43 7 0 9 8 5 20 -5 15 -3 18 9
14 11 -4 16 0 16 11 0 14 3 15 15 5 8 -7 15 -18 15 -25 0 -21 35 -45 58 -38
12 3 20 9 17 13 -2 4 6 13 19 20 16 8 28 27 35 53 5 23 9 42 8 43 -1 1 -14 5
-30 9 -23 6 -27 4 -27 -14z"/>
<path d="M985 1519 c-5 -5 -19 -16 -30 -24 l-20 -14 20 -7 c11 -4 23 -12 27
-17 5 -8 38 52 38 69 0 8 -25 3 -35 -7z"/>
<path d="M2918 1525 c-9 -9 4 -54 18 -66 11 -9 14 -6 14 19 0 28 -21 58 -32
47z"/>
<path d="M2514 1406 c1 -14 8 -32 15 -40 7 -8 10 -20 6 -26 -3 -5 -1 -10 6
-10 15 0 3 68 -16 86 -12 12 -13 10 -11 -10z"/>
<path d="M2477 1403 c-4 -3 -7 -11 -7 -17 0 -6 5 -5 12 2 6 6 9 14 7 17 -3 3
-9 2 -12 -2z"/>
<path d="M2620 1376 c0 -8 4 -17 9 -20 5 -4 7 3 4 14 -6 23 -13 26 -13 6z"/>
<path d="M2491 1364 c0 -11 3 -14 6 -6 3 7 2 16 -1 19 -3 4 -6 -2 -5 -13z"/>
<path d="M2913 1368 c2 -10 -16 -21 -82 -52 -14 -6 -26 -17 -29 -23 -5 -18 59
-17 84 2 10 8 29 15 42 15 18 0 22 5 22 35 0 28 -4 35 -20 35 -11 0 -19 -5
-17 -12z"/>
<path d="M2455 1346 c-3 -9 -7 -23 -10 -31 -2 -8 0 -15 5 -15 11 0 25 48 16
57 -3 3 -8 -2 -11 -11z"/>
<path d="M2392 1290 c0 -14 2 -19 5 -12 2 6 2 18 0 25 -3 6 -5 1 -5 -13z"/>
<path d="M2766 1244 c-10 -14 -16 -30 -14 -36 2 -6 14 5 26 25 24 42 14 51
-12 11z"/>
<path d="M2840 1150 c19 -13 30 -13 30 0 0 6 -10 10 -22 10 -19 0 -20 -2 -8
-10z"/>
<path d="M1373 979 c3 -61 8 -114 12 -117 3 -3 49 -8 101 -10 l96 -4 -7 108
c-4 62 -12 112 -19 116 -6 4 -24 8 -40 8 -27 0 -28 -2 -23 -35 6 -34 5 -35
-28 -35 -31 0 -34 3 -37 32 -2 25 -9 33 -32 39 l-29 8 6 -110z"/>
<path d="M2931 993 c-7 -8 -11 -16 -8 -19 2 -2 10 2 17 11 17 20 9 27 -9 8z"/>
<path d="M2917 893 c-4 -3 -7 -38 -7 -77 0 -91 -7 -114 -34 -118 -16 -2 -12
-6 17 -15 36 -11 39 -10 48 13 15 41 12 204 -4 204 -8 0 -17 -3 -20 -7z"/>
<path d="M10 810 c0 -5 5 -10 11 -10 5 0 7 5 4 10 -3 6 -8 10 -11 10 -2 0 -4
-4 -4 -10z"/>
<path d="M146 782 c-3 -6 -1 -14 5 -17 15 -10 25 3 12 16 -7 7 -13 7 -17 1z"/>
<path d="M1200 665 c0 -8 5 -15 10 -15 6 0 10 7 10 15 0 8 -4 15 -10 15 -5 0
-10 -7 -10 -15z"/>
<path d="M2910 535 c0 -9 5 -15 11 -13 6 2 11 8 11 13 0 5 -5 11 -11 13 -6 2
-11 -4 -11 -13z"/>
<path d="M861 514 c0 -11 3 -14 6 -6 3 7 2 16 -1 19 -3 4 -6 -2 -5 -13z"/>
<path d="M945 54 c11 -8 28 -21 38 -29 22 -19 31 -19 47 0 7 8 27 15 44 15 17
1 42 7 56 15 23 12 14 14 -90 13 -101 0 -112 -2 -95 -14z"/>
</g>
</svg>
